<?xml version="1.0" encoding="UTF-8" standalone="no"?>
<svg width="20px" height="20px" viewBox="0 0 20 20" version="1.1" xmlns="http://www.w3.org/2000/svg" xmlns:xlink="http://www.w3.org/1999/xlink">
    <!-- Generator: Sketch 3.8.3 (29802) - http://www.bohemiancoding.com/sketch -->
    <title>icon--logout</title>
    <desc>Created with Sketch.</desc>
    <defs></defs>
    <g id="Page-1" stroke="none" stroke-width="1" fill="none" fill-rule="evenodd">
        <g id="icon--logout" fill="#5C5C5C">
            <g id="Page-1" transform="translate(10.000000, 10.000000) scale(-1, 1) translate(-10.000000, -10.000000) ">
                <polygon id="Fill-1" points="14.9492009 6.96956696 17.2654062 9.28568304 7.14286161 9.28568304 7.14286161 10.7142991 17.2654062 10.7142991 14.9492455 13.0305045 15.9593795 14.0406384 20.0000045 10.0000134 15.9593795 5.95934375"></polygon>
                <path d="M16.0487054,16.0609821 C14.4298661,17.6798661 12.2775893,18.5714286 9.98821429,18.5714286 C7.69861607,18.5714286 5.54598214,17.6798661 3.92696429,16.0609375 C2.30790179,14.4420089 1.42857143,12.2895089 1.42857143,10 C1.42857143,7.71066964 2.30790179,5.55825893 3.92700893,3.93924107 C5.54607143,2.32022321 7.69866071,1.42857143 9.98821429,1.42857143 C12.2774554,1.42857143 14.4297768,2.32022321 16.0487054,3.93919643 C16.1615179,4.05205357 16.2704018,4.1678125 16.3760714,4.28571429 L18.1944196,4.28571429 C16.3875446,1.69517857 13.3859821,0 9.98821429,0 C4.46522321,0 0,4.47758929 0,10 C0,15.5229911 4.46522321,20 9.98821429,20 C13.3860714,20 16.3877679,18.3049107 18.1945536,15.7142857 L16.37625,15.7142857 C16.2705357,15.8322768 16.1616518,15.9480357 16.0487054,16.0609821" id="Fill-2"></path>
            </g>
        </g>
    </g>
</svg>