<?xml version="1.0" encoding="UTF-8" standalone="no"?>
<svg width="16px" height="16px" viewBox="0 0 16 16" version="1.1" xmlns="http://www.w3.org/2000/svg" xmlns:xlink="http://www.w3.org/1999/xlink">
    <!-- Generator: Sketch 3.8.3 (29802) - http://www.bohemiancoding.com/sketch -->
    <title>icon--search</title>
    <desc>Created with Sketch.</desc>
    <defs></defs>
    <g id="Page-1" stroke="none" stroke-width="1" fill="none" fill-rule="evenodd">
        <g id="icon--search" fill="#666666">
            <path d="M9.89166667,2.8 C10.8375,3.74583333 11.3583333,5.00416667 11.3583333,6.34166667 C11.3583333,7.67916667 10.8375,8.9375 9.89166667,9.88333333 C8.94583333,10.8291667 7.6875,11.35 6.35,11.35 C5.0125,11.35 3.75416667,10.8291667 2.80833333,9.88333333 C1.8625,8.9375 1.34166667,7.67916667 1.34166667,6.34166667 C1.34166667,5.00416667 1.8625,3.74583333 2.80833333,2.8 C3.75416667,1.85416667 5.0125,1.33333333 6.35,1.33333333 C7.6875,1.33333333 8.94583333,1.85416667 9.89166667,2.8 L9.89166667,2.8 Z M11.6875,9.75 C12.3125,8.76666667 12.6791667,7.6 12.6791667,6.34583333 C12.6791667,2.84166667 9.84166667,0 6.34166667,0 C2.8375,0 0,2.84166667 0,6.34583333 C0,9.85 2.8375,12.6916667 6.3375,12.6916667 C7.60833333,12.6916667 8.79166667,12.3166667 9.78333333,11.675 L10.0708333,11.475 L14.5958333,16 L16,14.5708333 L11.4791667,10.0458333 L11.6875,9.75 Z" id="Page-1"></path>
        </g>
    </g>
</svg>