<?xml version="1.0" encoding="utf-8"?>
<!-- Generator: Adobe Illustrator 16.0.0, SVG Export Plug-In . SVG Version: 6.00 Build 0)  -->
<!DOCTYPE svg PUBLIC "-//W3C//DTD SVG 1.1//EN" "http://www.w3.org/Graphics/SVG/1.1/DTD/svg11.dtd">
<svg version="1.1" id="Layer_1" xmlns="http://www.w3.org/2000/svg" xmlns:xlink="http://www.w3.org/1999/xlink" x="0px" y="0px"
	 width="512px" height="512px" viewBox="0 0 512 512" enable-background="new 0 0 512 512" xml:space="preserve">
<g>
	<path fill="#D3D3D3" d="M353.136,449.483c0-22.494,0-77.792-0.938-101.224c0-6.562,0.938-10.312,6.562-14.061
		c64.672-51.549,114.346-127.467,134.967-205.261c0.937-4.686,1.873-9.373,2.812-14.06c4.687-29.055-8.436-50.612-33.741-55.298
		c-25.307-4.686-45.927,10.31-51.55,37.491c-12.185,54.361-46.862,113.409-91.852,153.71c-42.178,39.365-104.037,21.558-127.469,0
		c-44.988-39.364-78.73-99.349-91.852-153.71C93.514,69.89,73.832,54.895,48.526,59.58c-25.306,4.685-38.428,26.243-33.741,54.361
		c0.937,4.687,1.875,9.373,2.812,14.06c20.619,76.855,71.233,153.71,134.966,205.261c5.623,4.687,6.562,7.498,6.562,14.059
		c0,22.494,0,77.794-0.938,101.226L353.136,449.483z"/>
	<path fill="#D3D3D3" d="M315.647,102.697c-15.935-15.934-36.554-24.369-59.048-24.369s-43.115,8.436-59.048,25.306
		c-15.933,15.933-24.369,36.554-24.369,59.046c0,44.99,37.491,82.479,82.479,82.479h0.938c45.925,0,82.479-37.489,83.416-83.416
		C340.015,139.249,331.579,117.692,315.647,102.697z"/>
</g>
</svg>
