<?xml version="1.0" encoding="UTF-8" standalone="no"?>
<svg width="20px" height="20px" viewBox="0 0 20 20" version="1.1" xmlns="http://www.w3.org/2000/svg" xmlns:xlink="http://www.w3.org/1999/xlink">
    <!-- Generator: Sketch 3.8.3 (29802) - http://www.bohemiancoding.com/sketch -->
    <title>icon--settings</title>
    <desc>Created with Sketch.</desc>
    <defs></defs>
    <g id="Page-1" stroke="none" stroke-width="1" fill="none" fill-rule="evenodd">
        <g id="icon--settings" fill="#5C5C5C">
            <path d="M9.97439217,13.4997572 C7.97975748,13.4997572 6.39463611,11.95002 6.39463611,9.9998077 C6.39463611,8.04959544 7.97975748,6.49985818 9.97439217,6.49985818 C11.9690269,6.49985818 13.5541963,8.04959544 13.5541963,9.9998077 C13.5541963,11.95002 11.9690269,13.4997572 9.97439217,13.4997572 L9.97439217,13.4997572 Z M17.5944265,10.9997933 C17.6453873,10.700038 17.6453873,10.3498988 17.6453873,9.9998077 C17.6453873,9.64971659 17.5944265,9.34991322 17.5944265,8.99982212 L19.7418474,7.34994207 C19.9466522,7.20004038 19.9975649,6.95009207 19.8442498,6.7000476 L17.7986543,3.24990505 C17.6963,3.04971563 17.3896698,2.95014976 17.1848651,3.04971563 L14.6278827,4.04974928 C14.1164478,3.6498512 13.5031874,3.29971202 12.8894463,3.04971563 L12.5313745,0.399898078 C12.4804137,0.20018942 12.2756571,0 12.0199396,0 L7.9287486,0 C7.67307921,0 7.46832255,0.20018942 7.41736174,0.399898078 L7.00832918,3.04971563 C6.39453996,3.29971202 5.8321923,3.64980313 5.26936388,4.04974928 L2.71238153,3.04971563 C2.45666406,2.95014976 2.2009466,3.04971563 2.0985923,3.24990505 L0.0529968059,6.70009567 C-0.0488767248,6.89975625 0.00198792619,7.20004038 0.155351099,7.34999014 L2.35440592,8.99982212 C2.35440592,9.34991322 2.30344512,9.64971659 2.30344512,9.9998077 C2.30344512,10.3498988 2.35440592,10.6497022 2.35440592,10.9997933 L0.206936893,12.6496733 C0.00213215488,12.799575 -0.0487324961,13.0495233 0.104534524,13.2995678 L2.15013002,16.7497103 C2.25253239,16.9498998 2.55916258,17.0494656 2.76391924,16.9498998 L5.32094967,15.9498661 C5.83233653,16.3497642 6.44564499,16.6999034 7.05938614,16.9498998 L7.4684187,19.5997173 C7.51981219,19.8497137 7.72408809,19.9996154 7.97980555,19.9996154 L12.0709965,19.9996154 C12.326714,19.9996154 12.5314707,19.799426 12.5824315,19.5997173 L12.9919448,16.9498998 C13.6052533,16.6999034 14.1680817,16.3498123 14.7303813,15.9498661 L17.2874117,16.9498998 C17.5430811,17.0494656 17.7987985,16.9498998 17.9012009,16.7497103 L19.9467964,13.2995197 C20.0491507,13.0998591 19.9977572,12.799575 19.844394,12.6496252 L17.5944265,10.9997933 Z" id="Page-1"></path>
        </g>
    </g>
</svg>