<?xml version="1.0" encoding="utf-8"?>
<!-- Generator: Adobe Illustrator 16.0.0, SVG Export Plug-In . SVG Version: 6.00 Build 0)  -->
<!DOCTYPE svg PUBLIC "-//W3C//DTD SVG 1.1//EN" "http://www.w3.org/Graphics/SVG/1.1/DTD/svg11.dtd">
<svg version="1.1" id="Layer_1" xmlns="http://www.w3.org/2000/svg" xmlns:xlink="http://www.w3.org/1999/xlink" x="0px" y="0px"
	 width="512px" height="512px" viewBox="0 0 512 512" enable-background="new 0 0 512 512" xml:space="preserve">
<path fill="#333333" d="M256.773,48.646c115,0,208.222,93.22,208.222,208.222c0,115.001-93.222,208.224-208.222,208.224
	c-115.002,0-208.223-93.223-208.223-208.224C48.55,141.866,141.771,48.646,256.773,48.646 M256.773,13.941
	c-133.948,0-242.927,108.976-242.927,242.929c0,133.948,108.979,242.927,242.927,242.927S499.699,390.818,499.699,256.87
	C499.698,122.917,390.72,13.941,256.773,13.941L256.773,13.941z"/>
<circle fill="#333333" cx="340.061" cy="215.216" r="34.704"/>
<circle fill="#333333" cx="173.496" cy="215.216" r="34.704"/>
<path fill="#333333" d="M256.773,408.393c-63.729,0-123.189-34.33-155.168-89.6c-4.802-8.295-1.97-18.915,6.332-23.712
	c8.294-4.787,18.913-1.956,23.709,6.331c25.792,44.579,73.739,72.273,125.127,72.273c51.389,0,99.335-27.694,125.136-72.273
	c4.81-8.293,15.449-11.104,23.709-6.331c8.294,4.804,11.133,15.425,6.329,23.712C379.964,374.062,320.502,408.393,256.773,408.393z"
	/>
</svg>
