<?xml version="1.0" encoding="UTF-8" standalone="no"?>
<svg width="20px" height="20px" viewBox="0 0 20 20" version="1.1" xmlns="http://www.w3.org/2000/svg" xmlns:xlink="http://www.w3.org/1999/xlink">
    <!-- Generator: Sketch 3.8.3 (29802) - http://www.bohemiancoding.com/sketch -->
    <title>icon--calendar</title>
    <desc>Created with Sketch.</desc>
    <defs>
        <polygon id="path-1" points="0 20 20 20 20 0 0 0"></polygon>
    </defs>
    <g id="Page-1" stroke="none" stroke-width="1" fill="none" fill-rule="evenodd">
        <g id="icon--calendar">
            <g id="Page-1">
                <path d="M5,4.28571429 C5.79017857,4.28571429 6.42857143,3.64732143 6.42857143,2.85714286 L6.42857143,1.42857143 C6.42857143,0.638392857 5.79017857,0 5,0 C4.20982143,0 3.57142857,0.638392857 3.57142857,1.42857143 L3.57142857,2.85714286 C3.57142857,3.64732143 4.20982143,4.28571429 5,4.28571429 L5,4.28571429 Z" id="Fill-1" fill="#7A7A7A"></path>
                <path d="M15,4.28571429 C15.7901786,4.28571429 16.4285714,3.64732143 16.4285714,2.85714286 L16.4285714,1.42857143 C16.4285714,0.638392857 15.7901786,0 15,0 C14.2098214,0 13.5714286,0.638392857 13.5714286,1.42857143 L13.5714286,2.85714286 C13.5714286,3.64732143 14.2098214,4.28571429 15,4.28571429" id="Fill-3" fill="#7A7A7A"></path>
                <mask id="mask-2" fill="white">
                    <use xlink:href="#path-1"></use>
                </mask>
                <g id="Clip-6"></g>
                <path d="M2.14285714,17.8571429 L17.8571429,17.8571429 L17.8571429,6.42857143 L2.14285714,6.42857143 L2.14285714,17.8571429 Z M19.6428571,1.42857143 L17.1428571,1.42857143 L17.1428571,3.24553571 C17.1428571,4.25 16.1071429,5 15.0357143,5 C13.9642857,5 12.8571429,4.25 12.8571429,3.24553571 L12.8571429,1.42857143 L7.14285714,1.42857143 L7.14285714,3.24553571 C7.14285714,4.25 6.07142857,5 5,5 C3.92857143,5 2.85714286,4.25 2.85714286,3.24553571 L2.85714286,1.42857143 L0.357142857,1.42857143 C0.160714286,1.42857143 0,1.58928571 0,1.78571429 L0,19.6428571 C0,19.8392857 0.160714286,20 0.357142857,20 L19.6428571,20 C19.8392857,20 20,19.8392857 20,19.6428571 L20,1.78571429 C20,1.58928571 19.8392857,1.42857143 19.6428571,1.42857143 L19.6428571,1.42857143 Z" id="Fill-5" fill="#7A7A7A" mask="url(#mask-2)"></path>
            </g>
        </g>
    </g>
</svg>