<?xml version="1.0" encoding="utf-8"?>
<!-- Generator: Adobe Illustrator 16.0.0, SVG Export Plug-In . SVG Version: 6.00 Build 0)  -->
<!DOCTYPE svg PUBLIC "-//W3C//DTD SVG 1.1//EN" "http://www.w3.org/Graphics/SVG/1.1/DTD/svg11.dtd">
<svg version="1.1" id="Layer_1" xmlns="http://www.w3.org/2000/svg" xmlns:xlink="http://www.w3.org/1999/xlink" x="0px" y="0px"
	 width="512px" height="512px" viewBox="0 0 512 512" enable-background="new 0 0 512 512" xml:space="preserve">
<path fill="#D3D3D3" d="M368.719,242.026c37.539-3.213,65.072-39.471,61.565-81c-3.574-41.55-36.877-72.62-74.427-69.436
	c-37.517,3.213-65.072,39.465-61.544,81.027C297.877,214.146,331.18,245.232,368.719,242.026z M222.154,273.987
	c-13.441,0-8.051,4.56-34.594,21.143c-11.082,6.911-24.113,7.858-30.572,7.853l-0.165-0.164c0,0-0.679,0.071-1.932,0.115
	c-1.215-0.044-1.931-0.115-1.931-0.115l-0.148,0.164c-6.447,0.006-19.521-0.936-30.594-7.853
	c-26.554-16.583-21.136-21.143-34.605-21.143c-7.694,0-40.374,7.689-53.826,26.904C13.302,330.188,10.719,429.5,10.719,429.5
	h288.357c0,0-2.561-99.312-23.067-128.613C262.528,281.671,229.865,273.987,222.154,273.987z M481.417,267.764
	c-12.714-18.197-43.636-25.47-50.931-25.47c-12.703,0-7.612,4.324-32.739,20.015c-10.459,6.534-22.833,7.438-28.913,7.421
	l-0.176-0.158c0,0-0.679,0.075-1.778,0.12c-1.215-0.045-1.872-0.12-1.872-0.12l-0.125,0.158c-6.142,0.021-18.472-0.881-28.952-7.421
	c-25.126-15.697-19.998-20.015-32.75-20.015c-6.196,0-29.466,5.397-44.102,18.208c13.207,5.77,26.763,14.515,35.694,27.256
	c16.014,22.888,22.647,72.702,25.384,107.335h183.124C503.281,395.087,500.852,295.484,481.417,267.764z M156.857,273.691
	c39.695-3.376,68.789-41.698,65.062-85.602c-3.727-43.893-38.917-76.752-78.618-73.37c-39.635,3.387-68.79,41.725-65.002,85.607
	C82.014,244.237,117.211,277.074,156.857,273.691z"/>
</svg>
