<?xml version="1.0" encoding="utf-8"?>
<!-- Generator: Adobe Illustrator 16.0.0, SVG Export Plug-In . SVG Version: 6.00 Build 0)  -->
<!DOCTYPE svg PUBLIC "-//W3C//DTD SVG 1.1//EN" "http://www.w3.org/Graphics/SVG/1.1/DTD/svg11.dtd">
<svg version="1.1" id="Layer_1" xmlns="http://www.w3.org/2000/svg" xmlns:xlink="http://www.w3.org/1999/xlink" x="0px" y="0px"
	 width="512px" height="512px" viewBox="0 0 512 512" enable-background="new 0 0 512 512" xml:space="preserve">
<g>
	<path fill="#D3D3D3" d="M241.935,401.662c-20.943,40.505-53.432,61.732-98.992,58.131c-40.468-3.196-73.676-31.204-84.112-68.929
		c-2.911-10.527-4.275-21.959-3.712-32.841c0.556-10.875,3.045-22.151,7.208-32.205c4.165-10.064,10.488-19.67,17.636-27.94
		c7.13-8.245,16.461-14.58,24.452-21.435c-63.079-13.309-90.812-76.375-73.845-127.319c16.546-49.69,78.72-86.456,140.337-54.378
		c15.811-56.675,66.078-79.085,107.179-74.14c38.759,4.661,83.769,37.919,85.943,96.252c34.172-7.873,65.221-1.804,91.871,21.694
		c16.966,14.954,27.127,33.915,31.022,56.092c8.204,46.769-19.874,98.437-75.429,111.952c17.859,27.133,22.878,56.243,12.669,87.21
		c-8.06,24.439-23.853,42.753-46.475,55.063C331.878,473.81,268.185,458.162,241.935,401.662z M250.885,168.053
		c-43.018,0.159-77.761,34.92-77.759,77.798c0.003,43.398,35.063,77.638,79.276,77.415c41.744-0.209,76.455-35.722,76.208-77.957
		C328.368,202.862,293.182,167.896,250.885,168.053z"/>
</g>
</svg>
