<?xml version="1.0" encoding="UTF-8" standalone="no"?>
<svg width="20px" height="20px" viewBox="0 0 20 20" version="1.1" xmlns="http://www.w3.org/2000/svg" xmlns:xlink="http://www.w3.org/1999/xlink">
    <!-- Generator: Sketch 3.8.3 (29802) - http://www.bohemiancoding.com/sketch -->
    <title>icon--help</title>
    <desc>Created with Sketch.</desc>
    <defs></defs>
    <g id="Page-1" stroke="none" stroke-width="1" fill="none" fill-rule="evenodd">
        <g id="icon--help" fill="#5C5C5C">
            <g id="Page-1">
                <path d="M10,19.1682692 C4.94711538,19.1682692 0.831730769,15.0576923 0.831730769,10 C0.831730769,4.94711538 4.94230769,0.831730769 10,0.831730769 C15.0528846,0.831730769 19.1682692,4.94230769 19.1682692,10 C19.1682692,15.0528846 15.0528846,19.1682692 10,19.1682692 M10,0 C4.47596154,0 0,4.47596154 0,10 C0,15.5240385 4.47596154,20 10,20 C15.5240385,20 20,15.5240385 20,10 C20,4.47596154 15.5240385,0 10,0" id="Fill-1"></path>
                <path d="M10.1730769,4.71153846 C8.09615385,4.71153846 6.9375,5.6875 6.92307692,7.70192308 L7.82692308,7.70192308 C7.79807692,6.24038462 8.57211538,5.46634615 10.1298077,5.46634615 C11.2451923,5.46634615 12.1778846,6.24519231 12.1778846,7.37980769 C12.1778846,8.11538462 11.7788462,8.71153846 11.2451923,9.21153846 C10.1586538,10.2115385 9.85096154,10.9423077 9.79807692,12.3125 L10.7115385,12.3125 C10.7644231,11.0721154 10.7355769,10.8365385 11.8317308,9.75 C12.5625,9.06730769 13.0769231,8.38942308 13.0769231,7.33653846 C13.0769231,5.69230769 11.7596154,4.71153846 10.1730769,4.71153846" id="Fill-3"></path>
                <path d="M10.2067308,13.6682692 C9.75480769,13.6682692 9.38942308,14.0288462 9.38942308,14.4759615 C9.38942308,14.9230769 9.75480769,15.2884615 10.2067308,15.2884615 C10.6586538,15.2884615 11.0240385,14.9278846 11.0240385,14.4759615 C11.0240385,14.0288462 10.6586538,13.6682692 10.2067308,13.6682692" id="Fill-5"></path>
            </g>
        </g>
    </g>
</svg>