<?xml version="1.0" encoding="utf-8"?>
<!-- Generator: Adobe Illustrator 16.0.0, SVG Export Plug-In . SVG Version: 6.00 Build 0)  -->
<!DOCTYPE svg PUBLIC "-//W3C//DTD SVG 1.1//EN" "http://www.w3.org/Graphics/SVG/1.1/DTD/svg11.dtd">
<svg version="1.1" id="Layer_1" xmlns="http://www.w3.org/2000/svg" xmlns:xlink="http://www.w3.org/1999/xlink" x="0px" y="0px"
	 width="841.889px" height="595.281px" viewBox="0 0 841.889 595.281" enable-background="new 0 0 841.889 595.281"
	 xml:space="preserve">
<path fill="#D3D3D3" d="M542.459,282.93c40.83-3.494,70.778-42.932,66.963-88.102c-3.887-45.193-40.109-78.987-80.952-75.522
	c-40.807,3.494-70.778,42.926-66.939,88.131C465.406,252.607,501.629,286.419,542.459,282.93z M383.043,317.695
	c-14.62,0-8.757,4.959-37.628,22.996c-12.054,7.519-26.228,8.548-33.252,8.542l-0.179-0.179c0,0-0.738,0.078-2.102,0.125
	c-1.321-0.047-2.101-0.125-2.101-0.125l-0.161,0.179c-7.013,0.006-21.233-1.018-33.276-8.542
	c-28.883-18.037-22.989-22.996-37.64-22.996c-8.369,0-43.914,8.364-58.546,29.265c-22.281,31.865-25.091,139.885-25.091,139.885
	h313.641c0,0-2.785-108.02-25.091-139.892C426.957,326.053,391.431,317.695,383.043,317.695z M665.039,310.927
	c-13.828-19.794-47.462-27.705-55.396-27.705c-13.816,0-8.28,4.703-35.61,21.77c-11.376,7.107-24.835,8.09-31.448,8.072l-0.19-0.173
	c0,0-0.738,0.083-1.935,0.131c-1.322-0.048-2.036-0.131-2.036-0.131l-0.137,0.173c-6.679,0.023-20.091-0.959-31.49-8.072
	c-27.329-17.072-21.752-21.77-35.622-21.77c-6.738,0-32.05,5.869-47.968,19.806c14.364,6.273,29.109,15.786,38.824,29.645
	c17.418,24.895,24.633,79.077,27.609,116.746h199.181C688.821,449.413,686.178,341.078,665.039,310.927z M312.021,317.374
	c43.176-3.673,74.82-45.354,70.767-93.107c-4.054-47.742-42.33-83.482-85.512-79.804c-43.11,3.685-74.821,45.384-70.702,93.113
	C230.615,285.336,268.899,321.052,312.021,317.374z"/>
</svg>
