<?xml version="1.0" encoding="utf-8"?>
<!-- Generator: Adobe Illustrator 16.0.0, SVG Export Plug-In . SVG Version: 6.00 Build 0)  -->
<!DOCTYPE svg PUBLIC "-//W3C//DTD SVG 1.1//EN" "http://www.w3.org/Graphics/SVG/1.1/DTD/svg11.dtd">
<svg version="1.1" id="Layer_1" xmlns="http://www.w3.org/2000/svg" xmlns:xlink="http://www.w3.org/1999/xlink" x="0px" y="0px"
	 width="512px" height="512px" viewBox="0 0 512 512" enable-background="new 0 0 512 512" xml:space="preserve">
<path fill="#D3D3D3" d="M494.818,202.782c0-105.519-85.548-191.054-191.054-191.054v191.054H494.818z"/>
<path fill="#D3D3D3" d="M208.239,330.152c-63.303,0-114.633-51.335-114.633-114.632h401.212
	c0,63.304-51.329,114.632-114.631,114.632H208.239z"/>
<path fill="#D3D3D3" d="M192.317,502c-42.141,0-76.423-34.281-76.423-76.422c0-42.14,34.282-76.422,76.423-76.422
	c42.14,0,76.422,34.282,76.422,76.422C268.739,467.719,234.457,502,192.317,502z M192.317,374.63
	c-28.092,0-50.947,22.857-50.947,50.948c0,28.092,22.855,50.947,50.947,50.947c28.091,0,50.947-22.855,50.947-50.947
	C243.264,397.487,220.408,374.63,192.317,374.63z"/>
<path fill="#D3D3D3" d="M389.74,502c-42.14,0-76.422-34.281-76.422-76.422c0-42.14,34.282-76.422,76.422-76.422
	c42.142,0,76.423,34.282,76.423,76.422C466.162,467.719,431.88,502,389.74,502z M389.74,374.63
	c-28.091,0-50.947,22.857-50.947,50.948c0,28.092,22.856,50.947,50.947,50.947c28.092,0,50.947-22.855,50.947-50.947
	C440.687,397.487,417.83,374.63,389.74,374.63z"/>
<path fill="#D3D3D3" d="M26.737,110.44c-7.031,0-12.737,5.707-12.737,12.738c0,7.03,5.706,12.736,12.737,12.736
	c36.874,0,66.868,29.994,66.868,66.869h25.475C119.079,151.867,77.653,110.44,26.737,110.44z"/>
</svg>
