<?xml version="1.0" encoding="utf-8"?>
<!-- Generator: Adobe Illustrator 16.0.0, SVG Export Plug-In . SVG Version: 6.00 Build 0)  -->
<!DOCTYPE svg PUBLIC "-//W3C//DTD SVG 1.1//EN" "http://www.w3.org/Graphics/SVG/1.1/DTD/svg11.dtd">
<svg version="1.1" id="Layer_1" xmlns="http://www.w3.org/2000/svg" xmlns:xlink="http://www.w3.org/1999/xlink" x="0px" y="0px"
	 width="512px" height="512px" viewBox="0 0 512 512" enable-background="new 0 0 512 512" xml:space="preserve">
<path fill="#D3D3D3" d="M256.832,47.575c115.403,0,208.952,93.547,208.952,208.952c0,115.405-93.549,208.953-208.952,208.953
	c-115.405,0-208.953-93.548-208.953-208.953C47.879,141.122,141.427,47.575,256.832,47.575 M256.832,12.749
	c-134.42,0-243.778,109.358-243.778,243.78c0,134.419,109.358,243.777,243.778,243.777c134.418,0,243.778-109.358,243.778-243.777
	C500.609,122.107,391.249,12.749,256.832,12.749L256.832,12.749z"/>
<circle fill="#D3D3D3" cx="340.412" cy="214.73" r="34.826"/>
<circle fill="#D3D3D3" cx="173.264" cy="214.73" r="34.826"/>
<path fill="#D3D3D3" d="M364.191,373.729c-4.096,0-8.205-1.436-11.514-4.36c-26.48-23.368-60.513-36.247-95.847-36.247
	c-35.332,0-69.364,12.879-95.846,36.247c-7.208,6.365-18.212,5.67-24.574-1.533c-6.364-7.209-5.677-18.207,1.534-24.573
	c32.839-28.996,75.062-44.966,118.886-44.966c43.824,0,86.048,15.969,118.888,44.966c7.209,6.366,7.897,17.364,1.532,24.573
	C373.811,371.738,369.012,373.729,364.191,373.729z"/>
</svg>
