<?xml version="1.0" encoding="UTF-8" standalone="no"?>
<svg width="487px" height="487px" viewBox="0 0 487 487" version="1.1" xmlns="http://www.w3.org/2000/svg" xmlns:xlink="http://www.w3.org/1999/xlink">
    <!-- Generator: Sketch 3.7.2 (28276) - http://www.bohemiancoding.com/sketch -->
    <title>Slice 1</title>
    <desc>Created with Sketch.</desc>
    <defs></defs>
    <g id="Page-1" stroke="none" stroke-width="1" fill="none" fill-rule="evenodd">
        <g id="icon--vacation-lightgrey" fill="#6699CC">
            <path d="M243.773,35.646 C358.773,35.646 451.995,128.866 451.995,243.868 C451.995,358.869 358.773,452.091 243.773,452.091 C128.771,452.091 35.55,358.869 35.55,243.868 C35.55,128.866 128.771,35.646 243.773,35.646 L243.773,35.646 Z M243.773,0.941 C109.824,0.941 0.846,109.917 0.846,243.87 C0.846,377.818 109.824,486.796 243.773,486.796 C377.721,486.796 486.7,377.818 486.7,243.87 C486.698,109.917 377.72,0.941 243.773,0.941 L243.773,0.941 L243.773,0.941 Z" id="Shape"></path>
            <circle id="Oval" cx="327.061" cy="202.216" r="34.704"></circle>
            <circle id="Oval" cx="160.496" cy="202.216" r="34.704"></circle>
            <path d="M243.773,395.393 C180.044,395.393 120.583,361.063 88.605,305.793 C83.803,297.499 86.635,286.878 94.937,282.082 C103.231,277.295 113.85,280.126 118.646,288.413 C144.438,332.992 192.385,360.685 243.773,360.685 C295.161,360.685 343.108,332.992 368.908,288.413 C373.718,280.12 384.358,277.309 392.617,282.082 C400.911,286.885 403.751,297.506 398.947,305.793 C366.964,361.062 307.502,395.393 243.773,395.393 L243.773,395.393 Z" id="Shape"></path>
        </g>
    </g>
</svg>